<svg id="Capa_1" enable-background="new 0 0 512 512" height="512" viewBox="0 0 512 512" width="512" xmlns="http://www.w3.org/2000/svg" xmlns:xlink="http://www.w3.org/1999/xlink"><linearGradient id="SVGID_1_" gradientUnits="userSpaceOnUse" x1="256" x2="256" y1="512" y2="0"><stop offset="0" stop-color="#fd5900"/><stop offset="1" stop-color="#ffde00"/></linearGradient><g><g><path d="m376 331h-30c-29.392 0-55.92 12.217-75 31.749v-55.816c12.955-11.169 25.591-21.899 37.324-31.805 72.269-60.996 127.104-105.842 127.104-170.889.001-58.448-42.699-104.239-97.221-104.239-42.715 0-68.218 26.982-82.207 50.054-13.989-23.072-39.492-50.054-82.207-50.054-54.521 0-97.222 45.791-97.222 104.238 0 63.618 50.566 106.289 127.104 170.889 11.733 9.906 24.37 20.643 37.324 31.805v55.816c-19.079-19.531-45.607-31.748-74.999-31.748h-30c-8.291 0-15 6.709-15 15 0 57.891 47.109 105 105 105h15v46c0 8.291 6.709 15 15 15s15-6.709 15-15v-46h15c57.891 0 105-47.109 105-105 0-8.291-6.709-15-15-15zm-150 90c-36.226 0-66.519-25.811-73.491-60h13.491c36.226 0 66.519 25.811 73.491 60zm30-140.805c-11.47-9.844-22.485-19.131-32.974-27.993-70.122-59.18-116.455-98.291-116.455-147.964 0-42.319 28.901-74.238 67.222-74.238 50.112 0 67.061 57.832 67.764 60.293 1.831 6.46 7.734 10.942 14.443 10.942h.044c6.724-.029 12.612-4.497 14.414-10.986.161-.601 17.271-60.249 67.749-60.249 38.32 0 67.222 31.919 67.222 74.238 0 50.609-48.387 90.516-116.455 147.964-10.489 8.848-21.504 18.15-32.974 27.993zm30 140.805h-13.491c6.973-34.189 37.266-60 73.491-60h13.491c-6.972 34.189-37.265 60-73.491 60z" fill="url(#SVGID_1_)"/></g></g></svg>